<svg width="29" height="29" viewBox="0 0 29 29" fill="none" xmlns="http://www.w3.org/2000/svg">
<rect opacity="0.01" x="1" y="4.5" width="27.2656" height="20" fill="black"/>
<path fill-rule="evenodd" clip-rule="evenodd" d="M24.9065 7.00011C21.5504 4.43665 18.3457 4.50028 18.3457 4.50028L18.0185 4.88208C21.957 6.11654 23.806 7.88369 23.8302 7.90793C21.6638 6.68818 19.2764 5.91155 16.807 5.62324C15.2379 5.44786 13.6533 5.46373 12.088 5.67051C11.9661 5.67051 11.8571 5.69021 11.7373 5.71185L11.6977 5.71899C10.8765 5.78989 8.89182 6.10078 6.39623 7.21525C5.66626 7.55591 5.18422 7.81761 5.05249 7.88913L5.05248 7.88913L5.05244 7.88916C5.03328 7.89956 5.02154 7.90593 5.01754 7.90793C5.07329 7.85218 7.01801 6.00503 11.1553 4.78693L10.9244 4.50028C10.9244 4.50028 7.71978 4.43665 4.36304 7.00799C4.36304 7.00799 0.999023 13.2179 0.999023 20.8768C0.999023 20.8768 2.9601 24.3317 8.11794 24.4989C8.11794 24.4989 8.97848 23.4323 9.68753 22.5245C6.73864 21.6252 5.61508 19.7459 5.59871 19.7144C5.60088 19.7144 5.62002 19.7271 5.65529 19.7505L5.6553 19.7505C5.74805 19.812 5.9523 19.9475 6.25261 20.1204C6.27624 20.1447 6.29988 20.1683 6.34775 20.192C6.38216 20.2176 6.41866 20.2363 6.45613 20.2555C6.4886 20.2721 6.52181 20.2891 6.55501 20.3113C7.13679 20.6459 7.71857 20.9004 8.26096 21.1155C9.21786 21.4973 10.3578 21.8797 11.6971 22.1421C13.6897 22.5324 15.7386 22.5403 17.7391 22.1664C18.9042 21.9592 20.0413 21.6171 21.1274 21.147C22.0697 20.7781 22.9681 20.3056 23.806 19.738C24.6508 19.1726 22.6424 21.6888 19.5808 22.5724C20.0897 23.22 20.6054 23.8622 21.128 24.4989C26.2852 24.3317 28.2705 20.8846 28.2705 20.8846C28.2705 13.2185 24.9065 7.00072 24.9065 7.00072V7.00011ZM10.1269 18.3448C8.78759 18.3448 7.68766 17.3261 7.68766 16.0843C7.68766 14.8341 8.76395 13.8148 10.1269 13.8148C11.4904 13.8148 12.5904 14.8341 12.5667 16.0837C12.5667 17.3261 11.4904 18.3448 10.1269 18.3448ZM16.4246 16.0843C16.4246 17.3261 17.5246 18.3448 18.8639 18.3448C20.2274 18.3448 21.3031 17.3261 21.3031 16.0837C21.3031 14.8341 20.2274 13.8148 18.8639 13.8148C17.5009 13.8148 16.4246 14.8341 16.4246 16.0843Z" fill="black"/>
</svg>
