<svg width="27" height="28" viewBox="0 0 27 28" fill="none" xmlns="http://www.w3.org/2000/svg">
<rect opacity="0.01" y="0.5" width="26.6927" height="27" fill="black"/>
<path d="M26.6675 5.62685C25.6867 6.06729 24.6317 6.36513 23.525 6.49929C24.6542 5.81332 25.5217 4.72825 25.9308 3.43479C24.8733 4.06929 23.7025 4.53082 22.4567 4.77888C21.4583 3.70225 20.0367 3.02979 18.4633 3.02979C15.4417 3.02979 12.9925 5.50957 12.9925 8.569C12.9925 9.00354 13.0408 9.42625 13.1342 9.83125C8.5875 9.60007 4.55583 7.3945 1.8575 4.04313C1.38667 4.86157 1.11667 5.81247 1.11667 6.82835C1.11667 8.75041 2.0825 10.4455 3.55083 11.4394C2.65417 11.4108 1.81083 11.1618 1.0725 10.7467C1.07167 10.7695 1.07167 10.7931 1.07167 10.8168C1.07167 13.5007 2.9575 15.7392 5.46 16.248C5.00083 16.3745 4.5175 16.442 4.01833 16.442C3.66583 16.442 3.32333 16.4074 2.98917 16.3425C3.685 18.543 5.70583 20.1444 8.1 20.1891C6.2275 21.675 3.86833 22.5601 1.305 22.5601C0.863333 22.5601 0.428333 22.5339 0 22.4824C2.42083 24.0543 5.29667 24.9715 8.38667 24.9715C18.45 24.9715 23.9525 16.5306 23.9525 9.21025C23.9525 8.96978 23.9475 8.731 23.9367 8.49391C25.0058 7.7126 25.9333 6.73722 26.6667 5.62685H26.6675Z" fill="black"/>
</svg>
